<?xml version="1.0" encoding="UTF-8"?><svg id="Layer_2" xmlns="http://www.w3.org/2000/svg" viewBox="0 0 660.86 436.38"><defs><style>.cls-1{fill:#333740;}</style></defs><g id="Layer_1-2"><g><path class="cls-1" d="M235.5,30.42V335.15h4.2c17.31,0,30.94-9.96,30.94-31.47V0h73.43l27.27,30.42V332.53c0,60.32-32.52,103.85-102.8,103.85-28.32,0-51.4-8.92-67.66-22.55-15.21,15.21-37.24,22.55-67.66,22.55-33.57,0-58.74-11.01-87.07-35.14C12.06,371.86,0,341.97,0,303.68V0H73.43l27.27,30.42V335.15h3.67c17.31,0,31.47-9.96,31.47-31.47V0h72.38l27.27,30.42ZM19.93,9.44H9.44V303.68c0,55.6,30.42,95.98,94.93,95.98,29.9,0,53.5-10.49,67.66-26.22,15.73,15.74,38.29,26.22,67.66,26.22,64.51,0,94.93-40.39,94.93-95.98V9.44h-10.49V303.68c0,48.78-28.32,84.44-84.44,84.44-28.85,0-50.35-9.96-68.18-30.94-17.31,20.98-38.81,30.94-67.13,30.94-56.64,0-84.44-35.67-84.44-84.44V9.44Zm157.35,0h-10.49V303.68c0,38.29-23.08,62.94-62.41,62.94s-61.89-24.65-61.89-62.94V9.44h-11.54V303.68c0,43.01,26.22,73.95,73.43,73.95,35.67,0,59.79-15.74,67.66-47.73,5.24,29.37,33.04,47.73,67.66,47.73,47.73,0,72.9-30.95,72.9-73.95V9.44h-11.01V303.68c0,38.29-22.55,62.94-61.89,62.94s-62.41-24.65-62.41-62.94V9.44Zm-113.81,0h-10.49V303.68c0,32.52,21.5,51.92,51.4,51.92s51.4-19.41,51.4-51.92V9.44h-10.49V303.68c0,27.8-17.83,40.91-40.91,40.91s-40.91-13.11-40.91-40.91V9.44Zm135.32,0h-11.01V303.68c0,32.52,22.03,51.92,51.92,51.92s50.88-19.41,50.88-51.92V9.44h-10.49V303.68c0,27.8-17.31,40.91-40.39,40.91s-40.91-13.11-40.91-40.91V9.44Z"/><path class="cls-1" d="M559.63,401.76v-115.39c0-17.83-3.15-21.5-18.36-21.5h-45.11v164.17h-70.81l-30.42-27.27V0h117.49c43.53,0,75.53,15.73,108.57,52.45,25.17,28.85,36.71,56.12,36.71,92.31,0,41.96-13.11,68.18-33.57,85.49,26.22,25.7,36.71,53.5,36.71,84.97v113.81h-70.81l-30.42-27.27Zm61.37-285.85c0-68.71-42.48-106.47-108.57-106.47h-107.52V392.32h10.49V20.98h97.03c60.32,0,97.56,34.62,97.56,94.93,0,39.34-11.54,67.13-44.58,85.49,32.52,19.41,47.2,48.78,47.2,84.97v105.95h11.01v-105.95c0-35.14-14.16-66.08-41.96-84.97,23.6-16.26,39.34-40.91,39.34-85.49Zm-108.57,90.74c47.73,0,78.15,35.14,78.15,79.72v105.95h11.54v-105.95c0-39.34-20.98-74.48-59.27-84.97,35.14-9.97,57.69-40.91,57.69-85.49,0-50.88-33.57-83.92-88.12-83.92h-86.54V392.32h11.54V206.65h75Zm-75-10.49V42.48h75c49.83,0,78.15,29.37,78.15,73.43s-27.27,80.25-78.15,80.25h-75Zm10.49-11.01h64.51c39.86,0,67.66-23.6,67.66-69.23,0-38.29-23.6-62.41-67.66-62.41h-64.51V185.15Zm0,33.04v174.13h11.01V228.15h53.5c35.14,0,57.17,23.6,57.17,58.22v105.95h10.49v-105.95c0-43.01-25.17-68.18-67.66-68.18h-64.51Zm11.01-44.06V64.51h53.5c36.19,0,57.69,17.31,57.69,51.4,0,40.39-24.65,58.22-57.69,58.22h-53.5Zm37.24-9.44h16.26c27.27,0,47.73-15.21,47.73-48.78,0-12.06-3.15-14.69-18.88-14.69h-45.11v63.46Z"/></g></g></svg>