<?xml version="1.0" encoding="UTF-8"?><svg id="Layer_2" xmlns="http://www.w3.org/2000/svg" viewBox="0 0 446.66 399.74"><defs><style>.cls-1{fill:#f2f1df;}</style></defs><g id="Layer_2-2"><g id="Layer_1-2"><g><path class="cls-1" d="M435.6,68.2H95.13c-6.11,0-11.06-4.95-11.06-11.06s4.95-11.06,11.06-11.06H435.6c6.11,0,11.06,4.95,11.06,11.06s-4.95,11.06-11.06,11.06Z"/><path class="cls-1" d="M153.26,399.74c-26.7,0-48.42-21.65-48.42-48.25s21.72-48.25,48.42-48.25,48.39,21.65,48.39,48.25-21.71,48.25-48.39,48.25Zm0-74.38c-14.5,0-26.3,11.72-26.3,26.13s11.8,26.13,26.3,26.13,26.27-11.72,26.27-26.13-11.78-26.13-26.27-26.13Z"/><path class="cls-1" d="M343.09,399.74c-26.7,0-48.42-21.65-48.42-48.25s21.72-48.25,48.42-48.25,48.39,21.65,48.39,48.25-21.71,48.25-48.39,48.25h0Zm0-74.38c-14.5,0-26.3,11.72-26.3,26.13s11.8,26.13,26.3,26.13,26.27-11.72,26.27-26.13-11.79-26.13-26.27-26.13Z"/><path class="cls-1" d="M420.43,128.39H108.43c-6.11,0-11.06-4.95-11.06-11.06s4.95-11.06,11.06-11.06H420.43c6.11,0,11.06,4.95,11.06,11.06s-4.95,11.06-11.06,11.06Z"/><path class="cls-1" d="M395.93,189.14H121.37c-6.11,0-11.06-4.95-11.06-11.06s4.95-11.06,11.06-11.06H395.93c6.11,0,11.06,4.95,11.06,11.06s-4.95,11.06-11.06,11.06Z"/><path class="cls-1" d="M374.3,249.89H134.55c-5.21,0-9.71-3.63-10.81-8.72L76.21,22.12H11.06C4.95,22.12,0,17.17,0,11.06S4.95,0,11.06,0H85.13c5.2,0,9.71,3.63,10.81,8.72l47.53,219.05h230.83c6.11,0,11.06,4.95,11.06,11.06s-4.95,11.06-11.06,11.06Z"/></g></g></g></svg>