<?xml version="1.0" encoding="UTF-8"?><svg id="Layer_2" xmlns="http://www.w3.org/2000/svg" viewBox="0 0 46.53 66"><defs><style>.cls-1{fill:#333740;fill-rule:evenodd;}</style></defs><g id="Calque_34_-_copie"><g><path class="cls-1" d="M41.35,11H5.08c-1.78,0-3.22,1.31-3.22,3.09L7.44,62.79c0,1.78,1.44,3.21,3.22,3.21h25.32c1.78,0,3.22-1.5,3.22-3.27l5.37-48.61c0-1.78-1.44-3.12-3.22-3.12ZM14.72,58.94c-1.18,.11-2.23-.76-2.33-1.94l-3.43-37.18c-.11-1.18,.76-2.22,1.94-2.33,1.18-.11,2.22,.76,2.33,1.94l3.43,37.18c.11,1.18-.76,2.22-1.94,2.33Zm9.83-1.78c0,1.1-.9,2-2,2s-2-.9-2-2V19.16c0-1.1,.9-2,2-2s2,.9,2,2V57.16Zm9.06-.16c-.11,1.18-1.15,2.05-2.33,1.94-1.18-.11-2.05-1.15-1.94-2.33l3.43-37.18c.11-1.18,1.15-2.05,2.33-1.94,1.18,.11,2.05,1.15,1.94,2.33l-3.43,37.18Z"/><path class="cls-1" d="M44.43,4h-13.59c-.17-2-1.4-4-2.9-4h-9.35c-1.5,0-2.73,2-2.9,4H2.1c-1.16,0-2.1,1.07-2.1,2.23s.94,1.77,2.1,1.77H44.43c1.16,0,2.1-.6,2.1-1.77s-.94-2.23-2.1-2.23Zm-26.47,0s.14-1.75,.61-2.18c.42-.39,2.86-.41,4.65-.41s3.36-.07,4.54,.22c1.18,.29,1.36,2.37,1.36,2.37h-11.16Z"/></g></g></svg>